<svg width="60" height="60" viewBox="0 0 60 60" fill="none" xmlns="http://www.w3.org/2000/svg">
<path d="M30 60C46.5685 60 60 46.6895 60 30.2702C60 13.851 46.5685 0.540527 30 0.540527C13.4315 0.540527 0 13.851 0 30.2702C0 46.6895 13.4315 60 30 60Z" fill="#E8B84B" fill-opacity="0.05"/>
<path d="M30 51.8919C40.1549 51.8919 48.3871 43.4216 48.3871 32.973C48.3871 22.5244 40.1549 14.0541 30 14.0541C19.8451 14.0541 11.6129 22.5244 11.6129 32.973C11.6129 43.4216 19.8451 51.8919 30 51.8919Z" fill="#F5D07A" fill-opacity="0.06"/>
<path d="M30.0001 14.0541C32.138 14.0541 33.8711 10.9079 33.8711 7.02703C33.8711 3.14611 32.138 0 30.0001 0C27.8622 0 26.1292 3.14611 26.1292 7.02703C26.1292 10.9079 27.8622 14.0541 30.0001 14.0541Z" fill="#F5E060"/>
<path d="M29.9999 13.5136C31.2025 13.5136 32.1773 11.8196 32.1773 9.72983C32.1773 7.6401 31.2025 5.94604 29.9999 5.94604C28.7974 5.94604 27.8225 7.6401 27.8225 9.72983C27.8225 11.8196 28.7974 13.5136 29.9999 13.5136Z" fill="white" fill-opacity="0.5"/>
<path d="M30 13.5135V17.8379" stroke="#3A2A10" stroke-width="1.4" stroke-linecap="round"/>
<path d="M35.3226 17.8379H24.6775C24.143 17.8379 23.7097 18.3219 23.7097 18.919V55.6757C23.7097 56.2728 24.143 56.7568 24.6775 56.7568H35.3226C35.8571 56.7568 36.2904 56.2728 36.2904 55.6757V18.919C36.2904 18.3219 35.8571 17.8379 35.3226 17.8379Z" fill="#D4C090"/>
<path d="M27.0966 18.9189H26.6128C26.0783 18.9189 25.645 19.403 25.645 20V50.2703C25.645 50.8674 26.0783 51.3514 26.6128 51.3514H27.0966C27.6311 51.3514 28.0644 50.8674 28.0644 50.2703V20C28.0644 19.403 27.6311 18.9189 27.0966 18.9189Z" fill="white" fill-opacity="0.1"/>
<path d="M23.7097 25.4054C21.7742 27.5676 21.2903 32.973 23.2258 35.6757H23.7097V25.4054Z" fill="#C0A870" fill-opacity="0.7"/>
<path d="M36.2903 29.7297C38.2258 31.8919 37.7419 36.2162 36.2903 37.2973V35.6757V29.7297Z" fill="#C0A870" fill-opacity="0.6"/>
<path d="M29.9999 59.4594C36.4135 59.4594 41.6128 58.2493 41.6128 56.7567C41.6128 55.264 36.4135 54.054 29.9999 54.054C23.5862 54.054 18.387 55.264 18.387 56.7567C18.387 58.2493 23.5862 59.4594 29.9999 59.4594Z" fill="#8A6830" fill-opacity="0.5"/>
<path d="M40.1612 54.5945H19.8386C19.0369 54.5945 18.387 55.3205 18.387 56.2161V57.8377C18.387 58.7333 19.0369 59.4593 19.8386 59.4593H40.1612C40.9629 59.4593 41.6128 58.7333 41.6128 57.8377V56.2161C41.6128 55.3205 40.9629 54.5945 40.1612 54.5945Z" fill="#7A5828" fill-opacity="0.45"/>
</svg>
